<svg width="192" height="192" viewBox="0 0 192 192" fill="none" xmlns="http://www.w3.org/2000/svg">
<rect width="192" height="192" rx="24" fill="#2196F3"/>
<path d="M96 48C69.49 48 48 69.49 48 96S69.49 144 96 144S144 122.51 144 96S122.51 48 96 48ZM96 64C113.67 64 128 78.33 128 96S113.67 128 96 128S64 113.67 64 96S78.33 64 96 64Z" fill="white"/>
<circle cx="96" cy="88" r="8" fill="white"/>
<path d="M96 100C100.418 100 104 103.582 104 108V124C104 128.418 100.418 132 96 132C91.582 132 88 128.418 88 124V108C88 103.582 91.582 100 96 100Z" fill="white"/>
</svg>